<svg xmlns="http://www.w3.org/2000/svg" xmlns:xlink="http://www.w3.org/1999/xlink" width="1440" height="195" viewBox="0 0 1440 195">
  <defs>
    <clipPath id="clip-path">
      <rect id="Rectangle_1" data-name="Rectangle 1" width="1684" height="197" fill="#1a152f"/>
    </clipPath>
    <clipPath id="clip-Custom_Size_1">
      <rect width="1440" height="195"/>
    </clipPath>
  </defs>
  <g id="Custom_Size_1" data-name="Custom Size – 1" clip-path="url(#clip-Custom_Size_1)">
    <g id="Custom_Size_1-2" data-name="Custom Size – 1" clip-path="url(#clip-path)">
      <g id="bakuchiolwhite" transform="translate(1131 2287.235)">
        <rect id="Rectangle_1-2" data-name="Rectangle 1" width="1678" height="197" transform="translate(-1131 -2287.235)" fill="none"/>
        <path id="Path_1" data-name="Path 1" d="M1299.6,4.919h38.963V157.267h92.108V191.2H1299.6ZM1151.753,143.542q12.122,19.958,38.452,19.951,18.068,0,29.407-9.838a57.438,57.438,0,0,0,16-23.58,84.315,84.315,0,0,0,4.9-28.5,113.055,113.055,0,0,0-9.8-46.385q-9.541-21.773-41.532-21.757a45.313,45.313,0,0,0-22.2,5.693q-10.84,5.709-18.582,19.435a58.154,58.154,0,0,0-6.2,16.064,67.1,67.1,0,0,0-2.586,18.918q0,30.047,12.128,50Zm-50.3-42.5q0-29.781,9.284-52.6a75.177,75.177,0,0,1,29.661-35.5Q1161.048.008,1191.232,0A94.268,94.268,0,0,1,1224,5.693a77.6,77.6,0,0,1,28.381,17.612q12.385,11.927,19.612,30.579t7.227,45.337q0,23.055-6.2,40.934-6.724,18.145-18.07,30.321a78.621,78.621,0,0,1-28.12,19.177,98.837,98.837,0,0,1-36.638,6.742q-26.837,0-46.447-11.919-20.113-12.169-30.452-31.612a113.7,113.7,0,0,1-8.511-22.015,77.977,77.977,0,0,1-3.356-23.063v-6.742ZM1045.207,4.919h38.963v186.3h-38.963Zm-165.651,0h38.963V75.4h72.5V4.919h38.706v186.3H991.018V107.786h-72.5v83.432H879.555ZM698.7,74.11a101.951,101.951,0,0,1,5.413-19.177q6.456-18.144,17.28-30.063a74.087,74.087,0,0,1,26.581-18.4,103.18,103.18,0,0,1,16.51-4.661A84.191,84.191,0,0,1,782.546,0q22.962,0,39.993,8.806,17.8,9.072,27.608,23.58A73.57,73.57,0,0,1,862.276,66.32H823.309q-7.733-32.394-39.221-32.386-22.979,0-35.861,17.87-12.648,17.612-12.64,48.708l.512,1.548a84.771,84.771,0,0,0,5.155,29.015,51.7,51.7,0,0,0,15.226,22.8q10.073,8.54,24.51,8.548,34.57,0,42.319-34.982h38.967a92.89,92.89,0,0,1-13.412,35.24,72.364,72.364,0,0,1-27.1,24.354q-17.3,9.338-39.221,9.322-24.524,0-43.6-10.371-19.609-10.621-30.964-32.385a94,94,0,0,1-8.515-24.612,131.192,131.192,0,0,1-3.1-29.015l.512-5.435a98.075,98.075,0,0,1,1.8-20.467ZM527.632,4.919H567.11v121q0,13.983,4.9,22.031,4.889,8.54,12.64,11.919a37.9,37.9,0,0,0,15.738,3.629q37.151,0,37.149-36.014V4.919H677.27V127.478q0,18.918-6.2,32.9-6.193,14.249-16.253,21.5a65.235,65.235,0,0,1-23.483,10.887,117.254,117.254,0,0,1-29.661,3.629,96.432,96.432,0,0,1-35.865-6.742,57.468,57.468,0,0,1-27.35-21.5q-10.845-14.757-10.844-38.611V4.919Zm-172.093,0h38.192V80.835l71.2-75.916h49.807l-75.6,76.432L519.375,191.2H469.314l-57.273-81.35-18.324,18.145v63.223H355.523V4.919ZM272.97,121l-23.224-74.11L225.751,121ZM227.566,4.919h44.89l65.528,186.3h-42.32l-11.612-38.353H215.681l-13.154,38.353H161.765ZM86.7,159.348q11.853,0,19.868-6.226t8-19.176q0-13.742-8.255-19.177-8-5.443-19.1-5.435h-49.8v50H86.68ZM37.406,77.722H84.624q12.118,0,18.583-5.435,6.7-5.443,6.713-14.773,0-9.846-5.926-15.031T82.328,37.3H37.438V77.722ZM0,191.217V4.919H91.338q18.068,0,29.664,5.693,12.383,5.951,18.839,16.322A51.289,51.289,0,0,1,147.069,50q0,32.636-22.453,40.934a37.942,37.942,0,0,1,21.666,17.87q6.962,12.7,6.97,29.273a52.781,52.781,0,0,1-1.028,10.629c-.69,3.451-2.489,7.951-5.412,13.467a45.33,45.33,0,0,1-13.668,16.322,59.39,59.39,0,0,1-21.152,9.58,117.442,117.442,0,0,1-28.38,3.113H0Z" transform="translate(-1131 -2287)" fill="#1a152f"/>
        <path id="Rectangle_2" data-name="Rectangle 2" d="M226,128h0Z" transform="translate(321 -2222.235)" fill="#1a152f"/>
      </g>
    </g>
  </g>
</svg>
